<svg id="my-svg" width="100%" xmlns="http://www.w3.org/2000/svg" xmlns:xlink="http://www.w3.org/1999/xlink" class="flowchart" style="max-width: 328.267px; background-color: transparent;" viewBox="0 0 328.2671203613281 629" role="graphics-document document" aria-roledescription="flowchart-v2"><style>#my-svg{font-family:ui-sans-serif,system-ui,sans-serif;font-size:15px;fill:#000000;}@keyframes edge-animation-frame{from{stroke-dashoffset:0;}}@keyframes dash{to{stroke-dashoffset:0;}}#my-svg .edge-animation-slow{stroke-dasharray:9,5!important;stroke-dashoffset:900;animation:dash 50s linear infinite;stroke-linecap:round;}#my-svg .edge-animation-fast{stroke-dasharray:9,5!important;stroke-dashoffset:900;animation:dash 20s linear infinite;stroke-linecap:round;}#my-svg .error-icon{fill:#552222;}#my-svg .error-text{fill:#552222;stroke:#552222;}#my-svg .edge-thickness-normal{stroke-width:1px;}#my-svg .edge-thickness-thick{stroke-width:3.5px;}#my-svg .edge-pattern-solid{stroke-dasharray:0;}#my-svg .edge-thickness-invisible{stroke-width:0;fill:none;}#my-svg .edge-pattern-dashed{stroke-dasharray:3;}#my-svg .edge-pattern-dotted{stroke-dasharray:2;}#my-svg .marker{fill:#7b8494;stroke:#7b8494;}#my-svg .marker.cross{stroke:#7b8494;}#my-svg svg{font-family:ui-sans-serif,system-ui,sans-serif;font-size:15px;}#my-svg p{margin:0;}#my-svg .label{font-family:ui-sans-serif,system-ui,sans-serif;color:#000000;}#my-svg .cluster-label text{fill:#333;}#my-svg .cluster-label span{color:#333;}#my-svg .cluster-label span p{background-color:transparent;}#my-svg .label text,#my-svg span{fill:#000000;color:#000000;}#my-svg .node rect,#my-svg .node circle,#my-svg .node ellipse,#my-svg .node polygon,#my-svg .node path{fill:#eee;stroke:#999;stroke-width:1px;}#my-svg .rough-node .label text,#my-svg .node .label text,#my-svg .image-shape .label,#my-svg .icon-shape .label{text-anchor:middle;}#my-svg .node .katex path{fill:#000;stroke:#000;stroke-width:1px;}#my-svg .rough-node .label,#my-svg .node .label,#my-svg .image-shape .label,#my-svg .icon-shape .label{text-align:center;}#my-svg .node.clickable{cursor:pointer;}#my-svg .root .anchor path{fill:#7b8494!important;stroke-width:0;stroke:#7b8494;}#my-svg .arrowheadPath{fill:#333333;}#my-svg .edgePaths .path{stroke:#7b8494;stroke-width:1px;}#my-svg .flowchart-link{stroke:#7b8494;fill:none;}#my-svg .edgeLabel{background-color:#eef0f3;text-align:center;}#my-svg .edgeLabel p{background-color:#eef0f3;}#my-svg .edgeLabel rect{opacity:0.5;background-color:#eef0f3;fill:#eef0f3;}#my-svg .labelBkg{background-color:rgba(238, 240, 243, 0.5);}#my-svg .cluster rect{fill:hsl(0, 0%, 98.9215686275%);stroke:#707070;stroke-width:1px;}#my-svg .cluster text{fill:#333;}#my-svg .cluster span{color:#333;}#my-svg .node .collapsed-indicator{fill:#707070;stroke:none;opacity:0.6;}#my-svg .node .collapsed-separator{stroke:#707070;stroke-width:0.75px;}#my-svg div.mermaidTooltip{position:absolute;text-align:center;max-width:200px;padding:2px;font-family:ui-sans-serif,system-ui,sans-serif;font-size:12px;background:hsl(-160, 0%, 93.3333333333%);border:1px solid #707070;border-radius:2px;pointer-events:none;z-index:100;}#my-svg .flowchartTitleText{text-anchor:middle;font-size:18px;fill:#000000;}#my-svg rect.text{fill:none;stroke-width:0;}#my-svg .icon-shape,#my-svg .image-shape{background-color:#eef0f3;text-align:center;}#my-svg .icon-shape p,#my-svg .image-shape p{background-color:#eef0f3;padding:2px;}#my-svg .icon-shape .label rect,#my-svg .image-shape .label rect{opacity:0.5;background-color:#eef0f3;fill:#eef0f3;}#my-svg .label-icon{display:inline-block;height:1em;overflow:visible;vertical-align:-0.125em;}#my-svg .node .label-icon path{fill:currentColor;stroke:revert;stroke-width:revert;}#my-svg .node .neo-node{stroke:#999;}#my-svg [data-look="neo"].node rect,#my-svg [data-look="neo"].cluster rect,#my-svg [data-look="neo"].node polygon{stroke:url(#my-svg-gradient);filter:drop-shadow( 1px 2px 2px rgba(185,185,185,1));}#my-svg [data-look="neo"].swimlane.cluster rect{filter:none;}#my-svg [data-look="neo"].node path{stroke:url(#my-svg-gradient);stroke-width:1px;}#my-svg [data-look="neo"].node .outer-path{filter:drop-shadow( 1px 2px 2px rgba(185,185,185,1));}#my-svg [data-look="neo"].node .neo-line path{stroke:#999;filter:none;}#my-svg [data-look="neo"].node circle{stroke:url(#my-svg-gradient);filter:drop-shadow( 1px 2px 2px rgba(185,185,185,1));}#my-svg [data-look="neo"].node circle .state-start{fill:#000000;}#my-svg [data-look="neo"].icon-shape .icon{fill:url(#my-svg-gradient);filter:drop-shadow( 1px 2px 2px rgba(185,185,185,1));}#my-svg [data-look="neo"].icon-shape .icon-neo path{stroke:url(#my-svg-gradient);filter:drop-shadow( 1px 2px 2px rgba(185,185,185,1));}#my-svg .edgeLabel rect{opacity:1;}#my-svg :root{--mermaid-font-family:"trebuchet ms",verdana,arial,sans-serif;}#my-svg .box rect{fill:rgb(238, 240, 243)!important;stroke:rgb(123, 132, 148)!important;color:rgb(29, 29, 31)!important;}#my-svg .box polygon{fill:rgb(238, 240, 243)!important;stroke:rgb(123, 132, 148)!important;color:rgb(29, 29, 31)!important;}#my-svg .box ellipse{fill:rgb(238, 240, 243)!important;stroke:rgb(123, 132, 148)!important;color:rgb(29, 29, 31)!important;}#my-svg .box circle{fill:rgb(238, 240, 243)!important;stroke:rgb(123, 132, 148)!important;color:rgb(29, 29, 31)!important;}#my-svg .box path{fill:rgb(238, 240, 243)!important;stroke:rgb(123, 132, 148)!important;color:rgb(29, 29, 31)!important;}#my-svg .box tspan{fill:rgb(29, 29, 31)!important;}</style><g><marker id="my-svg_flowchart-v2-pointEnd" class="marker flowchart-v2" viewBox="0 0 10 10" refX="5" refY="5" markerUnits="userSpaceOnUse" markerWidth="8" markerHeight="8" orient="auto"><path d="M 0 0 L 10 5 L 0 10 z" class="arrowMarkerPath" style="stroke-width: 1; stroke-dasharray: 1, 0;"/></marker><marker id="my-svg_flowchart-v2-pointStart" class="marker flowchart-v2" viewBox="0 0 10 10" refX="4.5" refY="5" markerUnits="userSpaceOnUse" markerWidth="8" markerHeight="8" orient="auto"><path d="M 0 5 L 10 10 L 10 0 z" class="arrowMarkerPath" style="stroke-width: 1; stroke-dasharray: 1, 0;"/></marker><marker id="my-svg_flowchart-v2-pointEnd-margin" class="marker flowchart-v2" viewBox="0 0 11.5 14" refX="11.5" refY="7" markerUnits="userSpaceOnUse" markerWidth="10.5" markerHeight="14" orient="auto"><path d="M 0 0 L 11.5 7 L 0 14 z" class="arrowMarkerPath" style="stroke-width: 0; stroke-dasharray: 1, 0;"/></marker><marker id="my-svg_flowchart-v2-pointStart-margin" class="marker flowchart-v2" viewBox="0 0 11.5 14" refX="1" refY="7" markerUnits="userSpaceOnUse" markerWidth="11.5" markerHeight="14" orient="auto"><polygon points="0,7 11.5,14 11.5,0" class="arrowMarkerPath" style="stroke-width: 0; stroke-dasharray: 1, 0;"/></marker><marker id="my-svg_flowchart-v2-circleEnd" class="marker flowchart-v2" viewBox="0 0 10 10" refX="11" refY="5" markerUnits="userSpaceOnUse" markerWidth="11" markerHeight="11" orient="auto"><circle cx="5" cy="5" r="5" class="arrowMarkerPath" style="stroke-width: 1; stroke-dasharray: 1, 0;"/></marker><marker id="my-svg_flowchart-v2-circleStart" class="marker flowchart-v2" viewBox="0 0 10 10" refX="-1" refY="5" markerUnits="userSpaceOnUse" markerWidth="11" markerHeight="11" orient="auto"><circle cx="5" cy="5" r="5" class="arrowMarkerPath" style="stroke-width: 1; stroke-dasharray: 1, 0;"/></marker><marker id="my-svg_flowchart-v2-circleEnd-margin" class="marker flowchart-v2" viewBox="0 0 10 10" refY="5" refX="12.25" markerUnits="userSpaceOnUse" markerWidth="14" markerHeight="14" orient="auto"><circle cx="5" cy="5" r="5" class="arrowMarkerPath" style="stroke-width: 0; stroke-dasharray: 1, 0;"/></marker><marker id="my-svg_flowchart-v2-circleStart-margin" class="marker flowchart-v2" viewBox="0 0 10 10" refX="-2" refY="5" markerUnits="userSpaceOnUse" markerWidth="14" markerHeight="14" orient="auto"><circle cx="5" cy="5" r="5" class="arrowMarkerPath" style="stroke-width: 0; stroke-dasharray: 1, 0;"/></marker><marker id="my-svg_flowchart-v2-crossEnd" class="marker cross flowchart-v2" viewBox="0 0 11 11" refX="12" refY="5.2" markerUnits="userSpaceOnUse" markerWidth="11" markerHeight="11" orient="auto"><path d="M 1,1 l 9,9 M 10,1 l -9,9" class="arrowMarkerPath" style="stroke-width: 2; stroke-dasharray: 1, 0;"/></marker><marker id="my-svg_flowchart-v2-crossStart" class="marker cross flowchart-v2" viewBox="0 0 11 11" refX="-1" refY="5.2" markerUnits="userSpaceOnUse" markerWidth="11" markerHeight="11" orient="auto"><path d="M 1,1 l 9,9 M 10,1 l -9,9" class="arrowMarkerPath" style="stroke-width: 2; stroke-dasharray: 1, 0;"/></marker><marker id="my-svg_flowchart-v2-crossEnd-margin" class="marker cross flowchart-v2" viewBox="0 0 15 15" refX="17.7" refY="7.5" markerUnits="userSpaceOnUse" markerWidth="12" markerHeight="12" orient="auto"><path d="M 1,1 L 14,14 M 1,14 L 14,1" class="arrowMarkerPath" style="stroke-width: 2.5;"/></marker><marker id="my-svg_flowchart-v2-crossStart-margin" class="marker cross flowchart-v2" viewBox="0 0 15 15" refX="-3.5" refY="7.5" markerUnits="userSpaceOnUse" markerWidth="12" markerHeight="12" orient="auto"><path d="M 1,1 L 14,14 M 1,14 L 14,1" class="arrowMarkerPath" style="stroke-width: 2.5; stroke-dasharray: 1, 0;"/></marker><g class="root"><g class="clusters"/><g class="edgePaths"><path d="M154.711,67L154.711,70.833C154.711,74.667,154.711,82.333,154.711,89.333C154.711,96.333,154.711,102.667,154.711,105.833L154.711,109" id="my-svg-L_day_item_0" class="edge-thickness-normal edge-pattern-solid edge-thickness-normal edge-pattern-solid flowchart-link" style="stroke:#7b8494;;;stroke:#7b8494" data-edge="true" data-et="edge" data-id="L_day_item_0" data-points="W3sieCI6MTU0LjcxMDkzNzUsInkiOjY3fSx7IngiOjE1NC43MTA5Mzc1LCJ5Ijo5MH0seyJ4IjoxNTQuNzEwOTM3NSwieSI6MTEzfV0=" data-look="classic" marker-end="url(#my-svg_flowchart-v2-pointEnd__7b8494)"/><path d="M154.711,188.5L154.711,192.333C154.711,196.167,154.711,203.833,154.711,210.833C154.711,217.833,154.711,224.167,154.711,227.333L154.711,230.5" id="my-svg-L_item_node_0" class="edge-thickness-normal edge-pattern-solid edge-thickness-normal edge-pattern-solid flowchart-link" style="stroke:#7b8494;;;stroke:#7b8494" data-edge="true" data-et="edge" data-id="L_item_node_0" data-points="W3sieCI6MTU0LjcxMDkzNzUsInkiOjE4OC41fSx7IngiOjE1NC43MTA5Mzc1LCJ5IjoyMTEuNX0seyJ4IjoxNTQuNzEwOTM3NSwieSI6MjM0LjV9XQ==" data-look="classic" marker-end="url(#my-svg_flowchart-v2-pointEnd__7b8494)"/><path d="M114.996,293.5L109.835,297.333C104.674,301.167,94.353,308.833,89.192,315.833C84.031,322.833,84.031,329.167,84.031,332.333L84.031,335.5" id="my-svg-L_node_loop_0" class="edge-thickness-normal edge-pattern-solid edge-thickness-normal edge-pattern-solid flowchart-link" style="stroke:#7b8494;;;stroke:#7b8494" data-edge="true" data-et="edge" data-id="L_node_loop_0" data-points="W3sieCI6MTE0Ljk5NTY4NDUyMzgwOTUzLCJ5IjoyOTMuNX0seyJ4Ijo4NC4wMzEyNSwieSI6MzE2LjV9LHsieCI6ODQuMDMxMjUsInkiOjMzOS41fV0=" data-look="classic" marker-end="url(#my-svg_flowchart-v2-pointEnd__7b8494)"/><path d="M194.426,293.5L199.587,297.333C204.748,301.167,215.069,308.833,220.23,315.833C225.391,322.833,225.391,329.167,225.391,332.333L225.391,335.5" id="my-svg-L_node_step_0" class="edge-thickness-normal edge-pattern-solid edge-thickness-normal edge-pattern-solid flowchart-link" style="stroke:#7b8494;;;stroke:#7b8494" data-edge="true" data-et="edge" data-id="L_node_step_0" data-points="W3sieCI6MTk0LjQyNjE5MDQ3NjE5MDQ3LCJ5IjoyOTMuNX0seyJ4IjoyMjUuMzkwNjI1LCJ5IjozMTYuNX0seyJ4IjoyMjUuMzkwNjI1LCJ5IjozMzkuNX1d" data-look="classic" marker-end="url(#my-svg_flowchart-v2-pointEnd__7b8494)"/><path d="M225.391,398.5L225.391,402.333C225.391,406.167,225.391,413.833,225.391,420.833C225.391,427.833,225.391,434.167,225.391,437.333L225.391,440.5" id="my-svg-L_step_task_0" class="edge-thickness-normal edge-pattern-solid edge-thickness-normal edge-pattern-solid flowchart-link" style="stroke:#7b8494;;;stroke:#7b8494" data-edge="true" data-et="edge" data-id="L_step_task_0" data-points="W3sieCI6MjI1LjM5MDYyNSwieSI6Mzk4LjV9LHsieCI6MjI1LjM5MDYyNSwieSI6NDIxLjV9LHsieCI6MjI1LjM5MDYyNSwieSI6NDQ0LjV9XQ==" data-look="classic" marker-end="url(#my-svg_flowchart-v2-pointEnd__7b8494)"/><path d="M225.391,503.5L225.391,508.708C225.391,513.917,225.391,524.333,225.463,534.167C225.536,544,225.682,553.25,225.755,557.875L225.828,562.5" id="my-svg-L_task_stop_0" class="edge-thickness-normal edge-pattern-solid edge-thickness-normal edge-pattern-solid flowchart-link" style="stroke:#7b8494;;;stroke:#7b8494" data-edge="true" data-et="edge" data-id="L_task_stop_0" data-points="W3sieCI6MjI1LjM5MDYyNSwieSI6NTAzLjV9LHsieCI6MjI1LjM5MDYyNSwieSI6NTM0Ljc1fSx7IngiOjIyNS44OTA2MjUsInkiOjU2Ni41MDAwMDAwMDAwMDAxfV0=" data-look="classic" marker-end="url(#my-svg_flowchart-v2-pointEnd__7b8494)"/></g><g class="edgeLabels"><g class="edgeLabel" transform="translate(154.7109375, 90)"><g class="label" data-id="L_day_item_0" transform="translate(0, -9)"><g><rect class="background" style="" x="-31.0859375" y="-2" width="62.171875" height="22"/><text y="-10.1" text-anchor="middle" style=""><tspan class="text-outer-tspan row" x="0" y="-0.1em" dy="1.1em" text-anchor="middle"><tspan font-style="normal" class="text-inner-tspan" font-weight="normal">contains</tspan></tspan></text></g></g></g><g class="edgeLabel" transform="translate(154.7109375, 211.5)"><g class="label" data-id="L_item_node_0" transform="translate(0, -9)"><g><rect class="background" style="" x="-31.0859375" y="-2" width="62.171875" height="22"/><text y="-10.1" text-anchor="middle" style=""><tspan class="text-outer-tspan row" x="0" y="-0.1em" dy="1.1em" text-anchor="middle"><tspan font-style="normal" class="text-inner-tspan" font-weight="normal">contains</tspan></tspan></text></g></g></g><g class="edgeLabel" transform="translate(84.03125, 316.5)"><g class="label" data-id="L_node_loop_0" transform="translate(0, -9)"><g><rect class="background" style="" x="-17.0703125" y="-2" width="34.140625" height="22"/><text y="-10.1" text-anchor="middle" style=""><tspan class="text-outer-tspan row" x="0" y="-0.1em" dy="1.1em" text-anchor="middle"><tspan font-style="normal" class="text-inner-tspan" font-weight="normal">runs</tspan></tspan></text></g></g></g><g class="edgeLabel" transform="translate(225.390625, 316.5)"><g class="label" data-id="L_node_step_0" transform="translate(0, -9)"><g><rect class="background" style="" x="-31.0859375" y="-2" width="62.171875" height="22"/><text y="-10.1" text-anchor="middle" style=""><tspan class="text-outer-tspan row" x="0" y="-0.1em" dy="1.1em" text-anchor="middle"><tspan font-style="normal" class="text-inner-tspan" font-weight="normal">contains</tspan></tspan></text></g></g></g><g class="edgeLabel" transform="translate(225.390625, 421.5)"><g class="label" data-id="L_step_task_0" transform="translate(0, -9)"><g><rect class="background" style="" x="-31.0859375" y="-2" width="62.171875" height="22"/><text y="-10.1" text-anchor="middle" style=""><tspan class="text-outer-tspan row" x="0" y="-0.1em" dy="1.1em" text-anchor="middle"><tspan font-style="normal" class="text-inner-tspan" font-weight="normal">contains</tspan></tspan></text></g></g></g><g class="edgeLabel" transform="translate(225.390625, 534.75)"><g class="label" data-id="L_task_stop_0" transform="translate(0, -17.25)"><g><rect class="background" style="" x="-68.2265625" y="-2" width="136.453125" height="38.5"/><text y="-10.1" text-anchor="middle" style=""><tspan class="text-outer-tspan row" x="0" y="-0.1em" dy="1.1em" text-anchor="middle"><tspan font-style="normal" class="text-inner-tspan" font-weight="normal">a</tspan><tspan font-style="normal" class="text-inner-tspan" font-weight="normal"> cap</tspan><tspan font-style="normal" class="text-inner-tspan" font-weight="normal"> at</tspan><tspan font-style="normal" class="text-inner-tspan" font-weight="normal"> any</tspan><tspan font-style="normal" class="text-inner-tspan" font-weight="normal"> scope,</tspan></tspan><tspan class="text-outer-tspan row" x="0" y="1em" dy="1.1em" text-anchor="middle"><tspan font-style="normal" class="text-inner-tspan" font-weight="normal">the</tspan><tspan font-style="normal" class="text-inner-tspan" font-weight="normal"> day</tspan><tspan font-style="normal" class="text-inner-tspan" font-weight="normal"> included</tspan></tspan></text></g></g></g></g><g class="nodes"><g class="node default box" id="my-svg-flowchart-day-0" data-look="classic" transform="translate(154.7109375, 37.5)"><rect class="basic label-container" style="fill:#eef0f3 !important;stroke:#7b8494 !important" x="-98.8125" y="-29.5" width="197.625" height="59"/><g class="label" style="color:#1d1d1f !important" transform="translate(0, -25.5)"><rect/><g><rect class="background" style="stroke: none"/><text y="-10.1" style="fill:#1d1d1f !important"><tspan class="text-outer-tspan row" x="0" y="-0.1em" dy="1.1em"><tspan font-style="normal" class="text-inner-tspan" font-weight="normal">A</tspan><tspan font-style="normal" class="text-inner-tspan" font-weight="normal"> day,</tspan><tspan font-style="normal" class="text-inner-tspan" font-weight="normal"> since</tspan><tspan font-style="normal" class="text-inner-tspan" font-weight="normal"> local</tspan><tspan font-style="normal" class="text-inner-tspan" font-weight="normal"> midnight</tspan></tspan><tspan class="text-outer-tspan row" x="0" y="1em" dy="1.1em"><tspan font-style="normal" class="text-inner-tspan" font-weight="normal">every</tspan><tspan font-style="normal" class="text-inner-tspan" font-weight="normal"> work</tspan><tspan font-style="normal" class="text-inner-tspan" font-weight="normal"> item</tspan><tspan font-style="normal" class="text-inner-tspan" font-weight="normal"> together</tspan></tspan><tspan class="text-outer-tspan row" x="0" y="2.1em" dy="1.1em"><tspan font-style="normal" class="text-inner-tspan" font-weight="normal">budget.daily_usd,</tspan><tspan font-style="normal" class="text-inner-tspan" font-weight="normal"> dollars</tspan></tspan></text></g></g></g><g class="node default box" id="my-svg-flowchart-item-1" data-look="classic" transform="translate(154.7109375, 150.75)"><rect class="basic label-container" style="fill:#eef0f3 !important;stroke:#7b8494 !important" x="-88.3046875" y="-37.75" width="176.609375" height="75.5"/><g class="label" style="color:#1d1d1f !important" transform="translate(0, -33.75)"><rect/><g><rect class="background" style="stroke: none"/><text y="-10.1" style="fill:#1d1d1f !important"><tspan class="text-outer-tspan row" x="0" y="-0.1em" dy="1.1em"><tspan font-style="normal" class="text-inner-tspan" font-weight="normal">A</tspan><tspan font-style="normal" class="text-inner-tspan" font-weight="normal"> work</tspan><tspan font-style="normal" class="text-inner-tspan" font-weight="normal"> item</tspan></tspan><tspan class="text-outer-tspan row" x="0" y="1em" dy="1.1em"><tspan font-style="normal" class="text-inner-tspan" font-weight="normal">time,</tspan><tspan font-style="normal" class="text-inner-tspan" font-weight="normal"> total</tspan><tspan font-style="normal" class="text-inner-tspan" font-weight="normal"> time,</tspan><tspan font-style="normal" class="text-inner-tspan" font-weight="normal"> tokens,</tspan></tspan><tspan class="text-outer-tspan row" x="0" y="2.1em" dy="1.1em"><tspan font-style="normal" class="text-inner-tspan" font-weight="normal">dollars,</tspan><tspan font-style="normal" class="text-inner-tspan" font-weight="normal"> and</tspan></tspan><tspan class="text-outer-tspan row" x="0" y="3.2em" dy="1.1em"><tspan font-style="normal" class="text-inner-tspan" font-weight="normal">budget.work_item_usd</tspan></tspan></text></g></g></g><g class="node default box" id="my-svg-flowchart-node-2" data-look="classic" transform="translate(154.7109375, 264)"><rect class="basic label-container" style="fill:#eef0f3 !important;stroke:#7b8494 !important" x="-88.734375" y="-29.5" width="177.46875" height="59"/><g class="label" style="color:#1d1d1f !important" transform="translate(0, -25.5)"><rect/><g><rect class="background" style="stroke: none"/><text y="-10.1" style="fill:#1d1d1f !important"><tspan class="text-outer-tspan row" x="0" y="-0.1em" dy="1.1em"><tspan font-style="normal" class="text-inner-tspan" font-weight="normal">A</tspan><tspan font-style="normal" class="text-inner-tspan" font-weight="normal"> node,</tspan><tspan font-style="normal" class="text-inner-tspan" font-weight="normal"> a</tspan><tspan font-style="normal" class="text-inner-tspan" font-weight="normal"> gate</tspan><tspan font-style="normal" class="text-inner-tspan" font-weight="normal"> included</tspan></tspan><tspan class="text-outer-tspan row" x="0" y="1em" dy="1.1em"><tspan font-style="normal" class="text-inner-tspan" font-weight="normal">time,</tspan><tspan font-style="normal" class="text-inner-tspan" font-weight="normal"> total</tspan><tspan font-style="normal" class="text-inner-tspan" font-weight="normal"> time,</tspan></tspan><tspan class="text-outer-tspan row" x="0" y="2.1em" dy="1.1em"><tspan font-style="normal" class="text-inner-tspan" font-weight="normal">tokens,</tspan><tspan font-style="normal" class="text-inner-tspan" font-weight="normal"> dollars</tspan></tspan></text></g></g></g><g class="node default box" id="my-svg-flowchart-loop-3" data-look="classic" transform="translate(84.03125, 369)"><rect class="basic label-container" style="fill:#eef0f3 !important;stroke:#7b8494 !important" x="-76.03125" y="-29.5" width="152.0625" height="59"/><g class="label" style="color:#1d1d1f !important" transform="translate(0, -25.5)"><rect/><g><rect class="background" style="stroke: none"/><text y="-10.1" style="fill:#1d1d1f !important"><tspan class="text-outer-tspan row" x="0" y="-0.1em" dy="1.1em"><tspan font-style="normal" class="text-inner-tspan" font-weight="normal">Its</tspan><tspan font-style="normal" class="text-inner-tspan" font-weight="normal"> fix</tspan><tspan font-style="normal" class="text-inner-tspan" font-weight="normal"> loop</tspan></tspan><tspan class="text-outer-tspan row" x="0" y="1em" dy="1.1em"><tspan font-style="normal" class="text-inner-tspan" font-weight="normal">attempts,</tspan><tspan font-style="normal" class="text-inner-tspan" font-weight="normal"> wall</tspan><tspan font-style="normal" class="text-inner-tspan" font-weight="normal"> clock</tspan></tspan><tspan class="text-outer-tspan row" x="0" y="2.1em" dy="1.1em"><tspan font-style="normal" class="text-inner-tspan" font-weight="normal">not</tspan><tspan font-style="normal" class="text-inner-tspan" font-weight="normal"> a</tspan><tspan font-style="normal" class="text-inner-tspan" font-weight="normal"> cap</tspan></tspan></text></g></g></g><g class="node default box" id="my-svg-flowchart-step-4" data-look="classic" transform="translate(225.390625, 369)"><rect class="basic label-container" style="fill:#eef0f3 !important;stroke:#7b8494 !important" x="-61.328125" y="-29.5" width="122.65625" height="59"/><g class="label" style="color:#1d1d1f !important" transform="translate(0, -25.5)"><rect/><g><rect class="background" style="stroke: none"/><text y="-10.1" style="fill:#1d1d1f !important"><tspan class="text-outer-tspan row" x="0" y="-0.1em" dy="1.1em"><tspan font-style="normal" class="text-inner-tspan" font-weight="normal">A</tspan><tspan font-style="normal" class="text-inner-tspan" font-weight="normal"> step</tspan></tspan><tspan class="text-outer-tspan row" x="0" y="1em" dy="1.1em"><tspan font-style="normal" class="text-inner-tspan" font-weight="normal">time,</tspan><tspan font-style="normal" class="text-inner-tspan" font-weight="normal"> total</tspan><tspan font-style="normal" class="text-inner-tspan" font-weight="normal"> time,</tspan></tspan><tspan class="text-outer-tspan row" x="0" y="2.1em" dy="1.1em"><tspan font-style="normal" class="text-inner-tspan" font-weight="normal">tokens,</tspan><tspan font-style="normal" class="text-inner-tspan" font-weight="normal"> dollars</tspan></tspan></text></g></g></g><g class="node default box" id="my-svg-flowchart-task-5" data-look="classic" transform="translate(225.390625, 474)"><rect class="basic label-container" style="fill:#eef0f3 !important;stroke:#7b8494 !important" x="-61.328125" y="-29.5" width="122.65625" height="59"/><g class="label" style="color:#1d1d1f !important" transform="translate(0, -25.5)"><rect/><g><rect class="background" style="stroke: none"/><text y="-10.1" style="fill:#1d1d1f !important"><tspan class="text-outer-tspan row" x="0" y="-0.1em" dy="1.1em"><tspan font-style="normal" class="text-inner-tspan" font-weight="normal">A</tspan><tspan font-style="normal" class="text-inner-tspan" font-weight="normal"> task</tspan></tspan><tspan class="text-outer-tspan row" x="0" y="1em" dy="1.1em"><tspan font-style="normal" class="text-inner-tspan" font-weight="normal">time,</tspan><tspan font-style="normal" class="text-inner-tspan" font-weight="normal"> total</tspan><tspan font-style="normal" class="text-inner-tspan" font-weight="normal"> time,</tspan></tspan><tspan class="text-outer-tspan row" x="0" y="2.1em" dy="1.1em"><tspan font-style="normal" class="text-inner-tspan" font-weight="normal">tokens,</tspan><tspan font-style="normal" class="text-inner-tspan" font-weight="normal"> dollars</tspan></tspan></text></g></g></g><g class="node default box" id="my-svg-flowchart-stop-6" data-look="classic" transform="translate(225.390625, 593.5)"><g class="basic label-container outer-path"><path d="M-67.390625 -27.5 C-21.338404486581915 -27.5, 24.71381602683617 -27.5, 67.390625 -27.5 C67.390625 -27.5, 67.390625 -27.5, 67.390625 -27.5 C67.77503863215713 -27.487672603032465, 68.15945226431427 -27.47534520606493, 69.15255604946961 -27.44349830063425 C69.84693915422733 -27.37651199763614, 70.54132225898505 -27.309525694638026, 70.90724694632391 -27.27422538013927 C71.28482276129871 -27.21318185051832, 71.6623985762735 -27.152138320897375, 72.64748728928774 -26.9928768172543 C73.28119067307219 -26.84823815520654, 73.91489405685664 -26.703599493158784, 74.36612605751145 -26.60060873357331 C74.9667790997928 -26.422338063516364, 75.56743214207415 -26.244067393459417, 76.05610099564957 -26.099033042793387 C76.44101071277173 -25.95738270882601, 76.8259204298939 -25.815732374858634, 77.71046763418279 -25.4902108270156 C78.28810045335916 -25.234509912834994, 78.86573327253555 -24.97880899865439, 79.32242782573285 -24.776643867316526 C79.89335697868036 -24.478790493921387, 80.46428613162786 -24.18093712052625, 80.88535768010829 -23.961264363393212 C81.3623429106767 -23.672113113546285, 81.83932814124512 -23.382961863699357, 82.39283478329008 -23.04742288452562 C82.94638675667073 -22.66128899077399, 83.4999387300514 -22.275155097022356, 83.83866458850844 -22.038874601368807 C84.31794572714982 -21.656660647509053, 84.79722686579119 -21.274446693649296, 85.21690587096418 -20.9397638551512 C85.60619235814927 -20.586224167445728, 85.99547884533438 -20.232684479740254, 86.52189514159588 -19.75460712768751 C86.82263967451976 -19.44406370585824, 87.12338420744365 -19.13352028402897, 87.74826991957117 -18.488274482186217 C88.03737662058822 -18.148673300534277, 88.32648332160527 -17.809072118882337, 88.89099076787082 -17.145969551115172 C89.18073311826241 -16.757741197661577, 89.470475468654 -16.369512844207986, 89.94536200141629 -15.733208153359671 C90.16282564999875 -15.399125591970993, 90.3802892985812 -15.065043030582315, 90.90705098264702 -14.255795628539442 C91.18508315946677 -13.762121344785186, 91.4631153362865 -13.268447061030932, 91.7721059252575 -12.71980298162297 C91.9666596786937 -12.31580794982925, 92.1612134321299 -11.911812918035528, 92.53697213293484 -11.131541935865837 C92.67074483571268 -10.801120773685293, 92.80451753849053 -10.470699611504747, 93.1985066063684 -9.497538996585973 C93.33013529893576 -9.10109434675716, 93.46176399150313 -8.704649696928346, 93.75399095850817 -7.8245086323534 C93.8657492884276 -7.398325684004037, 93.97750761834703 -6.972142735654676, 94.20114258500016 -6.119325683798649 C94.28581099939572 -5.68457127055315, 94.37047941379127 -5.249816857307652, 94.53812404389737 -4.388997113417939 C94.62309358048363 -3.729990166787756, 94.7080631170699 -3.070983220157573, 94.76355060610295 -2.6406332124612533 C94.80016631182669 -2.070314040148486, 94.8367820175504 -1.4999948678357187, 94.87649594551891 -0.881418383220517 C94.87649594551891 -0.4983957162046485, 94.87649594551891 -0.11537304918878, 94.87649594551891 0.8814183832205104 C94.84014416135778 1.4476267641620504, 94.80379237719667 2.0138351451035903, 94.76355060610295 2.6406332124612346 C94.68791795982303 3.2272250816530277, 94.61228531354311 3.8138169508448208, 94.53812404389738 4.38899711341792 C94.44992556770752 4.841877647898334, 94.36172709151765 5.294758182378748, 94.20114258500016 6.1193256837986425 C94.09558738786615 6.52185339838245, 93.99003219073214 6.924381112966257, 93.75399095850817 7.824508632353382 C93.55906600463534 8.411591536344577, 93.36414105076251 8.998674440335773, 93.19850660636841 9.497538996585954 C93.003290124457 9.979727481161058, 92.80807364254558 10.46191596573616, 92.53697213293484 11.13154193586583 C92.31441600983447 11.593684487421912, 92.09185988673413 12.055827038977993, 91.7721059252575 12.719802981622964 C91.49387137295807 13.213836603534148, 91.21563682065863 13.707870225445333, 90.90705098264702 14.255795628539436 C90.6703222609505 14.61947451562779, 90.43359353925398 14.983153402716141, 89.9453620014163 15.733208153359657 C89.63130823103343 16.154011594785626, 89.31725446065057 16.574815036211593, 88.89099076787082 17.14596955111517 C88.50998630718534 17.593519070404312, 88.12898184649985 18.041068589693452, 87.74826991957119 18.488274482186203 C87.42766283594494 18.819327618361392, 87.1070557523187 19.15038075453658, 86.52189514159588 19.754607127687503 C86.15967505026664 20.08356583081428, 85.7974549589374 20.412524533941056, 85.2169058709642 20.93976385515118 C84.7789934771854 21.28898733585157, 84.34108108340659 21.63821081655196, 83.83866458850845 22.038874601368803 C83.33276999206136 22.39176477202618, 82.82687539561425 22.744654942683553, 82.3928347832901 23.04742288452561 C82.03906569060678 23.26187978748819, 81.68529659792345 23.476336690450772, 80.88535768010829 23.96126436339321 C80.37940343751073 24.2252203676772, 79.87344919491316 24.489176371961186, 79.32242782573286 24.776643867316523 C78.75690978908355 25.026981926644652, 78.19139175243423 25.277319985972778, 77.7104676341828 25.490210827015595 C77.1987402478565 25.678531235539776, 76.6870128615302 25.86685164406396, 76.05610099564959 26.09903304279338 C75.5648461568623 26.244834900296176, 75.07359131807503 26.390636757798973, 74.36612605751148 26.600608733573303 C73.68141901759171 26.756888647303985, 72.99671197767195 26.91316856103467, 72.64748728928775 26.992876817254295 C71.98844905851368 27.099425007488037, 71.32941082773961 27.205973197721775, 70.90724694632394 27.274225380139267 C70.34692106704146 27.328279343823183, 69.78659518775899 27.3823333075071, 69.15255604946961 27.44349830063425 C68.66434066849122 27.459154417648637, 68.17612528751283 27.47481053466302, 67.390625 27.5 C67.390625 27.5, 67.390625 27.5, 67.390625 27.5 C31.370520735181728 27.5, -4.649583529636544 27.5, -67.390625 27.5 C-67.89601192513894 27.48379322498677, -68.40139885027787 27.46758644997354, -69.1525560494696 27.44349830063425 C-69.55258102913297 27.40490837194655, -69.95260600879635 27.366318443258848, -70.90724694632392 27.274225380139267 C-71.40652884378571 27.193505354946588, -71.90581074124749 27.112785329753912, -72.64748728928774 26.992876817254295 C-73.22475756700698 26.86111864340549, -73.80202784472621 26.729360469556685, -74.36612605751145 26.60060873357331 C-74.83028140688099 26.462849862281583, -75.2944367562505 26.325090990989853, -76.05610099564956 26.099033042793394 C-76.67401916570584 25.87163344423973, -77.29193733576213 25.64423384568607, -77.71046763418279 25.4902108270156 C-78.0860362781333 25.323957729186695, -78.46160492208382 25.15770463135779, -79.32242782573285 24.77664386731653 C-79.732620349379 24.56264669047118, -80.14281287302516 24.34864951362583, -80.88535768010829 23.961264363393216 C-81.18805464240312 23.77776768600529, -81.49075160469793 23.59427100861737, -82.39283478329007 23.047422884525627 C-82.75864692750444 22.792248168474178, -83.12445907171882 22.537073452422728, -83.83866458850844 22.03887460136881 C-84.32826176546071 21.64843388147743, -84.81785894241297 21.257993161586054, -85.21690587096418 20.939763855151202 C-85.64676075014431 20.54938102721668, -86.07661562932442 20.158998199282156, -86.52189514159586 19.75460712768752 C-86.90958966251777 19.35428070452352, -87.29728418343969 18.953954281359525, -87.74826991957119 18.488274482186213 C-88.12682442674587 18.043602817697156, -88.50537893392055 17.598931153208103, -88.89099076787082 17.145969551115176 C-89.16391253245817 16.78027925025237, -89.43683429704552 16.414588949389568, -89.94536200141629 15.733208153359675 C-90.28914773411996 15.205060948531658, -90.63293346682364 14.67691374370364, -90.90705098264701 14.255795628539454 C-91.23241870187609 13.678072295993998, -91.55778642110518 13.100348963448539, -91.7721059252575 12.719802981622973 C-92.00688713842511 12.232274768967214, -92.24166835159272 11.744746556311457, -92.53697213293484 11.13154193586584 C-92.7142564196771 10.693646320053922, -92.89154070641938 10.255750704242002, -93.1985066063684 9.497538996585975 C-93.33242585048285 9.094195570447159, -93.4663450945973 8.69085214430834, -93.75399095850817 7.824508632353393 C-93.91093651353528 7.226007210401187, -94.06788206856238 6.627505788448983, -94.20114258500014 6.119325683798652 C-94.3168694285276 5.525092801162189, -94.43259627205506 4.930859918525725, -94.53812404389737 4.3889971134179415 C-94.62657930638134 3.7029555650595043, -94.71503456886533 3.0169140167010675, -94.76355060610295 2.6406332124612693 C-94.80802896408761 1.9478468845657508, -94.85250732207227 1.2550605566702324, -94.87649594551891 0.8814183832205205 C-94.87649594551891 0.22444968368056528, -94.87649594551891 -0.4325190158593899, -94.87649594551891 -0.8814183832205071 C-94.84403792648219 -1.386978229358827, -94.81157990744548 -1.8925380754971468, -94.76355060610295 -2.640633212461231 C-94.68746541455126 -3.230734933415703, -94.61138022299957 -3.8208366543701753, -94.53812404389738 -4.388997113417929 C-94.44278807564808 -4.878527161114102, -94.34745210739877 -5.368057208810274, -94.20114258500016 -6.11932568379864 C-94.07753688502706 -6.590687788845275, -93.95393118505397 -7.062049893891911, -93.75399095850817 -7.824508632353378 C-93.5592218915074 -8.41112202992311, -93.36445282450666 -8.997735427492842, -93.19850660636843 -9.497538996585941 C-93.00940809053766 -9.96461598665902, -92.82030957470688 -10.4316929767321, -92.53697213293484 -11.131541935865826 C-92.2486253907069 -11.730300115734057, -91.96027864847898 -12.32905829560229, -91.7721059252575 -12.71980298162296 C-91.44406600065432 -13.302271085400296, -91.11602607605113 -13.88473918917763, -90.90705098264702 -14.255795628539445 C-90.56525947893313 -14.78087916211368, -90.22346797521924 -15.305962695687912, -89.94536200141629 -15.733208153359666 C-89.69753250114807 -16.065277105987118, -89.44970300087988 -16.39734605861457, -88.89099076787082 -17.14596955111517 C-88.47776409586 -17.631369113322815, -88.06453742384919 -18.11676867553046, -87.74826991957119 -18.488274482186203 C-87.49739839872065 -18.7473199243993, -87.24652687787011 -19.006365366612393, -86.52189514159589 -19.754607127687493 C-86.23418240857035 -20.015900219359523, -85.94646967554482 -20.277193311031553, -85.21690587096421 -20.939763855151178 C-84.9386083758305 -21.161698701712943, -84.66031088069678 -21.38363354827471, -83.83866458850845 -22.0388746013688 C-83.5430985124595 -22.245048701171342, -83.24753243641052 -22.45122280097388, -82.39283478329011 -23.047422884525606 C-81.85832254470392 -23.371447344699128, -81.32381030611772 -23.695471804872653, -80.88535768010829 -23.961264363393205 C-80.35721620575596 -24.236795432272057, -79.82907473140362 -24.51232650115091, -79.32242782573286 -24.776643867316523 C-78.89759922707063 -24.964702885851665, -78.4727706284084 -25.152761904386807, -77.7104676341828 -25.49021082701559 C-77.36410648929774 -25.61767493006062, -77.01774534441269 -25.745139033105648, -76.05610099564959 -26.09903304279338 C-75.620706995645 -26.228255696565, -75.18531299564039 -26.357478350336624, -74.36612605751148 -26.6006087335733 C-73.87945941852448 -26.71168721812547, -73.39279277953749 -26.82276570267764, -72.64748728928775 -26.992876817254295 C-72.21738981574067 -27.062411641321663, -71.7872923421936 -27.131946465389035, -70.90724694632394 -27.274225380139267 C-70.38093047293727 -27.32499849733871, -69.85461399955061 -27.375771614538152, -69.15255604946961 -27.44349830063425 C-68.54671072195826 -27.462926581081145, -67.94086539444692 -27.482354861528044, -67.39062500000001 -27.5 C-67.39062500000001 -27.5, -67.390625 -27.5, -67.390625 -27.5" stroke="none" stroke-width="0" fill="#eef0f3" style="fill:#eef0f3 !important;stroke:#7b8494 !important"/><path d="M-67.390625 -27.5 C-17.539510991580656 -27.5, 32.31160301683869 -27.5, 67.390625 -27.5 M-67.390625 -27.5 C-20.276388935244945 -27.5, 26.83784712951011 -27.5, 67.390625 -27.5 M67.390625 -27.5 C67.390625 -27.5, 67.390625 -27.5, 67.390625 -27.5 M67.390625 -27.5 C67.390625 -27.5, 67.390625 -27.5, 67.390625 -27.5 M67.390625 -27.5 C67.8216645513985 -27.48617740055424, 68.252704102797 -27.47235480110848, 69.15255604946961 -27.44349830063425 M67.390625 -27.5 C68.01155471425136 -27.480087992630327, 68.63248442850272 -27.46017598526066, 69.15255604946961 -27.44349830063425 M69.15255604946961 -27.44349830063425 C69.62424800365348 -27.397994745106704, 70.09593995783734 -27.352491189579162, 70.90724694632391 -27.27422538013927 M69.15255604946961 -27.44349830063425 C69.61688950581377 -27.39870461054341, 70.08122296215794 -27.353910920452577, 70.90724694632391 -27.27422538013927 M70.90724694632391 -27.27422538013927 C71.52636396615193 -27.17413134169767, 72.14548098597997 -27.074037303256073, 72.64748728928774 -26.9928768172543 M70.90724694632391 -27.27422538013927 C71.3723453725721 -27.19903187347563, 71.83744379882029 -27.123838366811984, 72.64748728928774 -26.9928768172543 M72.64748728928774 -26.9928768172543 C73.16990773884828 -26.873637758754136, 73.69232818840882 -26.754398700253972, 74.36612605751145 -26.60060873357331 M72.64748728928774 -26.9928768172543 C73.08338333142004 -26.89338639012511, 73.51927937355232 -26.79389596299592, 74.36612605751145 -26.60060873357331 M74.36612605751145 -26.60060873357331 C74.91122281591412 -26.43882687695067, 75.4563195743168 -26.27704502032803, 76.05610099564957 -26.099033042793387 M74.36612605751145 -26.60060873357331 C75.0161426505452 -26.407687220767617, 75.66615924357895 -26.214765707961924, 76.05610099564957 -26.099033042793387 M76.05610099564957 -26.099033042793387 C76.4676217950257 -25.9475895845664, 76.87914259440183 -25.79614612633942, 77.71046763418279 -25.4902108270156 M76.05610099564957 -26.099033042793387 C76.48808093485505 -25.940060431986986, 76.92006087406054 -25.781087821180584, 77.71046763418279 -25.4902108270156 M77.71046763418279 -25.4902108270156 C78.12769579281998 -25.305516297820503, 78.54492395145715 -25.120821768625405, 79.32242782573285 -24.776643867316526 M77.71046763418279 -25.4902108270156 C78.17104316246377 -25.286327703133225, 78.63161869074476 -25.08244457925085, 79.32242782573285 -24.776643867316526 M79.32242782573285 -24.776643867316526 C79.86543687949846 -24.4933563917809, 80.40844593326409 -24.210068916245277, 80.88535768010829 -23.961264363393212 M79.32242782573285 -24.776643867316526 C79.9230575084434 -24.463295746568097, 80.52368719115398 -24.149947625819667, 80.88535768010829 -23.961264363393212 M80.88535768010829 -23.961264363393212 C81.23127883426169 -23.75156492688707, 81.5771999884151 -23.54186549038093, 82.39283478329008 -23.04742288452562 M80.88535768010829 -23.961264363393212 C81.42583289358164 -23.633625112800758, 81.966308107055 -23.305985862208303, 82.39283478329008 -23.04742288452562 M82.39283478329008 -23.04742288452562 C82.90023092627278 -22.69348530000591, 83.40762706925547 -22.339547715486205, 83.83866458850844 -22.038874601368807 M82.39283478329008 -23.04742288452562 C82.7928317401872 -22.76840232298338, 83.1928286970843 -22.489381761441145, 83.83866458850844 -22.038874601368807 M83.83866458850844 -22.038874601368807 C84.18260015352224 -21.764595140780056, 84.52653571853607 -21.49031568019131, 85.21690587096418 -20.9397638551512 M83.83866458850844 -22.038874601368807 C84.38834246692487 -21.60052112087437, 84.9380203453413 -21.162167640379927, 85.21690587096418 -20.9397638551512 M85.21690587096418 -20.9397638551512 C85.61827195170473 -20.5752538001872, 86.01963803244527 -20.210743745223198, 86.52189514159588 -19.75460712768751 M85.21690587096418 -20.9397638551512 C85.67301788786487 -20.525534989464642, 86.12912990476558 -20.11130612377809, 86.52189514159588 -19.75460712768751 M86.52189514159588 -19.75460712768751 C86.80769791299751 -19.4594923013714, 87.09350068439915 -19.16437747505529, 87.74826991957117 -18.488274482186217 M86.52189514159588 -19.75460712768751 C86.81102948309436 -19.456052181719414, 87.10016382459284 -19.15749723575132, 87.74826991957117 -18.488274482186217 M87.74826991957117 -18.488274482186217 C88.15747822249551 -18.00759512495922, 88.56668652541985 -17.526915767732227, 88.89099076787082 -17.145969551115172 M87.74826991957117 -18.488274482186217 C87.98441261881317 -18.210887830756327, 88.22055531805518 -17.933501179326438, 88.89099076787082 -17.145969551115172 M88.89099076787082 -17.145969551115172 C89.18235311791734 -16.75557054570898, 89.47371546796386 -16.365171540302786, 89.94536200141629 -15.733208153359671 M88.89099076787082 -17.145969551115172 C89.1823112922717 -16.75562658826373, 89.4736318166726 -16.36528362541229, 89.94536200141629 -15.733208153359671 M89.94536200141629 -15.733208153359671 C90.2495863470818 -15.265837862742151, 90.55381069274732 -14.798467572124629, 90.90705098264702 -14.255795628539442 M89.94536200141629 -15.733208153359671 C90.32780071838515 -15.14567958492074, 90.71023943535403 -14.558151016481812, 90.90705098264702 -14.255795628539442 M90.90705098264702 -14.255795628539442 C91.20928567137884 -13.719147334115224, 91.51152036011065 -13.182499039691004, 91.7721059252575 -12.71980298162297 M90.90705098264702 -14.255795628539442 C91.19735566890945 -13.740330261543368, 91.48766035517187 -13.224864894547295, 91.7721059252575 -12.71980298162297 M91.7721059252575 -12.71980298162297 C92.01489518170614 -12.2156458957495, 92.25768443815475 -11.71148880987603, 92.53697213293484 -11.131541935865837 M91.7721059252575 -12.71980298162297 C92.0490716585532 -12.14467771031709, 92.32603739184891 -11.569552439011211, 92.53697213293484 -11.131541935865837 M92.53697213293484 -11.131541935865837 C92.72822019170522 -10.659155533173292, 92.91946825047562 -10.18676913048075, 93.1985066063684 -9.497538996585973 M92.53697213293484 -11.131541935865837 C92.75540821372341 -10.59200059314372, 92.97384429451199 -10.0524592504216, 93.1985066063684 -9.497538996585973 M93.1985066063684 -9.497538996585973 C93.4177497640795 -8.837213537213497, 93.63699292179062 -8.17688807784102, 93.75399095850817 -7.8245086323534 M93.1985066063684 -9.497538996585973 C93.37638181580729 -8.961807206321941, 93.55425702524619 -8.426075416057907, 93.75399095850817 -7.8245086323534 M93.75399095850817 -7.8245086323534 C93.87594744003748 -7.359435712008698, 93.99790392156679 -6.894362791663996, 94.20114258500016 -6.119325683798649 M93.75399095850817 -7.8245086323534 C93.85717161101115 -7.4310360855818445, 93.96035226351414 -7.03756353881029, 94.20114258500016 -6.119325683798649 M94.20114258500016 -6.119325683798649 C94.2922910821286 -5.651297415285795, 94.38343957925703 -5.1832691467729415, 94.53812404389737 -4.388997113417939 M94.20114258500016 -6.119325683798649 C94.27421186386641 -5.744130380017941, 94.34728114273268 -5.368935076237233, 94.53812404389737 -4.388997113417939 M94.53812404389737 -4.388997113417939 C94.59791714619799 -3.925253619457972, 94.65771024849859 -3.4615101254980054, 94.76355060610295 -2.6406332124612533 M94.53812404389737 -4.388997113417939 C94.62698275786613 -3.6998264750140897, 94.71584147183488 -3.0106558366102405, 94.76355060610295 -2.6406332124612533 M94.76355060610295 -2.6406332124612533 C94.78916190092396 -2.2417166225590845, 94.81477319574495 -1.8428000326569158, 94.87649594551891 -0.881418383220517 M94.76355060610295 -2.6406332124612533 C94.80420111385116 -2.0074687417836503, 94.84485162159936 -1.3743042711060474, 94.87649594551891 -0.881418383220517 M94.87649594551891 -0.881418383220517 C94.87649594551891 -0.45264048053252576, 94.87649594551891 -0.023862577844534494, 94.87649594551891 0.8814183832205104 M94.87649594551891 -0.881418383220517 C94.87649594551891 -0.4889507497436172, 94.87649594551891 -0.09648311626671735, 94.87649594551891 0.8814183832205104 M94.87649594551891 0.8814183832205104 C94.85333828994537 1.242117561301636, 94.83018063437181 1.6028167393827617, 94.76355060610295 2.6406332124612346 M94.87649594551891 0.8814183832205104 C94.84492460108073 1.373167556775618, 94.81335325664257 1.8649167303307257, 94.76355060610295 2.6406332124612346 M94.76355060610295 2.6406332124612346 C94.71794888056814 2.9943111906299356, 94.67234715503335 3.347989168798637, 94.53812404389738 4.38899711341792 M94.76355060610295 2.6406332124612346 C94.68854700998772 3.2223462927957707, 94.61354341387246 3.8040593731303067, 94.53812404389738 4.38899711341792 M94.53812404389738 4.38899711341792 C94.4577496003514 4.801702893881863, 94.37737515680543 5.2144086743458065, 94.20114258500016 6.1193256837986425 M94.53812404389738 4.38899711341792 C94.4362069051724 4.912320080575845, 94.33428976644741 5.43564304773377, 94.20114258500016 6.1193256837986425 M94.20114258500016 6.1193256837986425 C94.06586366902746 6.635202820655591, 93.93058475305476 7.1510799575125406, 93.75399095850817 7.824508632353382 M94.20114258500016 6.1193256837986425 C94.0304415012812 6.770282898336662, 93.85974041756225 7.421240112874681, 93.75399095850817 7.824508632353382 M93.75399095850817 7.824508632353382 C93.63498228559523 8.182943793710164, 93.51597361268227 8.541378955066946, 93.19850660636841 9.497538996585954 M93.75399095850817 7.824508632353382 C93.56892729991934 8.38189088613321, 93.3838636413305 8.939273139913038, 93.19850660636841 9.497538996585954 M93.19850660636841 9.497538996585954 C93.02701066204396 9.92113729471586, 92.85551471771952 10.344735592845769, 92.53697213293484 11.13154193586583 M93.19850660636841 9.497538996585954 C93.05766707518757 9.845415361549716, 92.91682754400674 10.193291726513479, 92.53697213293484 11.13154193586583 M92.53697213293484 11.13154193586583 C92.26750245665754 11.691101484383056, 91.99803278038026 12.25066103290028, 91.7721059252575 12.719802981622964 M92.53697213293484 11.13154193586583 C92.33013763881212 11.561038188460872, 92.1233031446894 11.990534441055912, 91.7721059252575 12.719802981622964 M91.7721059252575 12.719802981622964 C91.51415674910491 13.177817864068352, 91.25620757295232 13.63583274651374, 90.90705098264702 14.255795628539436 M91.7721059252575 12.719802981622964 C91.57074708685504 13.07733598899992, 91.36938824845258 13.434868996376878, 90.90705098264702 14.255795628539436 M90.90705098264702 14.255795628539436 C90.54344640115347 14.81438990721475, 90.17984181965994 15.372984185890065, 89.9453620014163 15.733208153359657 M90.90705098264702 14.255795628539436 C90.68253938825735 14.600705727326433, 90.45802779386769 14.94561582611343, 89.9453620014163 15.733208153359657 M89.9453620014163 15.733208153359657 C89.59717667541476 16.199744769865976, 89.2489913494132 16.666281386372294, 88.89099076787082 17.14596955111517 M89.9453620014163 15.733208153359657 C89.58037624806194 16.22225581196833, 89.21539049470758 16.711303470577004, 88.89099076787082 17.14596955111517 M88.89099076787082 17.14596955111517 C88.53320980106187 17.5662394330427, 88.17542883425293 17.98650931497023, 87.74826991957119 18.488274482186203 M88.89099076787082 17.14596955111517 C88.52350387644492 17.577640564380516, 88.15601698501904 18.009311577645867, 87.74826991957119 18.488274482186203 M87.74826991957119 18.488274482186203 C87.45834573864741 18.787645002207938, 87.16842155772362 19.087015522229674, 86.52189514159588 19.754607127687503 M87.74826991957119 18.488274482186203 C87.46312164938173 18.782713482265187, 87.17797337919227 19.07715248234417, 86.52189514159588 19.754607127687503 M86.52189514159588 19.754607127687503 C86.23315340276231 20.016834735208384, 85.94441166392873 20.27906234272927, 85.2169058709642 20.93976385515118 M86.52189514159588 19.754607127687503 C86.23971465110097 20.01087598306833, 85.95753416060606 20.267144838449155, 85.2169058709642 20.93976385515118 M85.2169058709642 20.93976385515118 C84.67113391784208 21.37500246416445, 84.12536196471996 21.810241073177714, 83.83866458850845 22.038874601368803 M85.2169058709642 20.93976385515118 C84.78291470791522 21.28586025869286, 84.34892354486625 21.63195666223454, 83.83866458850845 22.038874601368803 M83.83866458850845 22.038874601368803 C83.40467766888575 22.34160508950664, 82.97069074926306 22.644335577644473, 82.3928347832901 23.04742288452561 M83.83866458850845 22.038874601368803 C83.40281627460963 22.3429035175752, 82.96696796071082 22.64693243378159, 82.3928347832901 23.04742288452561 M82.3928347832901 23.04742288452561 C82.00642532524445 23.28166656878691, 81.6200158671988 23.515910253048208, 80.88535768010829 23.96126436339321 M82.3928347832901 23.04742288452561 C81.96081838530687 23.3093137637932, 81.52880198732365 23.571204643060792, 80.88535768010829 23.96126436339321 M80.88535768010829 23.96126436339321 C80.43276942495525 24.197379366209933, 79.98018116980222 24.433494369026658, 79.32242782573286 24.776643867316523 M80.88535768010829 23.96126436339321 C80.27836854262432 24.2779302076235, 79.67137940514034 24.594596051853788, 79.32242782573286 24.776643867316523 M79.32242782573286 24.776643867316523 C78.94354079975574 24.944365914432304, 78.56465377377862 25.11208796154808, 77.7104676341828 25.490210827015595 M79.32242782573286 24.776643867316523 C78.95471300756795 24.939420309445605, 78.58699818940305 25.102196751574684, 77.7104676341828 25.490210827015595 M77.7104676341828 25.490210827015595 C77.23624387836051 25.664729552834544, 76.76202012253822 25.83924827865349, 76.05610099564959 26.09903304279338 M77.7104676341828 25.490210827015595 C77.19026081137523 25.681651746547942, 76.67005398856763 25.873092666080286, 76.05610099564959 26.09903304279338 M76.05610099564959 26.09903304279338 C75.59442922276118 26.236054801622075, 75.13275744987276 26.37307656045077, 74.36612605751148 26.600608733573303 M76.05610099564959 26.09903304279338 C75.48900074827287 26.267345419444847, 74.92190050089614 26.43565779609632, 74.36612605751148 26.600608733573303 M74.36612605751148 26.600608733573303 C73.85558839921003 26.717135622511037, 73.34505074090859 26.833662511448768, 72.64748728928775 26.992876817254295 M74.36612605751148 26.600608733573303 C73.81250699817376 26.72696867116515, 73.25888793883604 26.853328608756996, 72.64748728928775 26.992876817254295 M72.64748728928775 26.992876817254295 C72.04981095654095 27.089504491683613, 71.45213462379415 27.18613216611293, 70.90724694632394 27.274225380139267 M72.64748728928775 26.992876817254295 C72.2848235026643 27.051509485775906, 71.92215971604082 27.11014215429752, 70.90724694632394 27.274225380139267 M70.90724694632394 27.274225380139267 C70.4195520353843 27.32127272165867, 69.93185712444466 27.36832006317807, 69.15255604946961 27.44349830063425 M70.90724694632394 27.274225380139267 C70.33136925170326 27.329779608745067, 69.75549155708258 27.385333837350863, 69.15255604946961 27.44349830063425 M69.15255604946961 27.44349830063425 C68.67166338154335 27.45891959249385, 68.1907707136171 27.47434088435345, 67.390625 27.5 M69.15255604946961 27.44349830063425 C68.50088047716396 27.46439626782854, 67.84920490485833 27.48529423502283, 67.390625 27.5 M67.390625 27.5 C67.390625 27.5, 67.390625 27.5, 67.390625 27.5 M67.390625 27.5 C67.390625 27.5, 67.390625 27.5, 67.390625 27.5 M67.390625 27.5 C35.49200126807479 27.5, 3.593377536149575 27.5, -67.390625 27.5 M67.390625 27.5 C29.854614815138525 27.5, -7.681395369722949 27.5, -67.390625 27.5 M-67.390625 27.5 C-68.06259431526145 27.47845125196849, -68.73456363052291 27.456902503936984, -69.1525560494696 27.44349830063425 M-67.390625 27.5 C-67.95348165371198 27.48195028264947, -68.51633830742395 27.463900565298943, -69.1525560494696 27.44349830063425 M-69.1525560494696 27.44349830063425 C-69.81759174414472 27.37934310699138, -70.48262743881983 27.315187913348513, -70.90724694632392 27.274225380139267 M-69.1525560494696 27.44349830063425 C-69.57002796043261 27.403225287467077, -69.98749987139563 27.362952274299907, -70.90724694632392 27.274225380139267 M-70.90724694632392 27.274225380139267 C-71.58331425036958 27.16492406140141, -72.25938155441524 27.055622742663555, -72.64748728928774 26.992876817254295 M-70.90724694632392 27.274225380139267 C-71.37797905322259 27.198121063677902, -71.84871116012124 27.122016747216534, -72.64748728928774 26.992876817254295 M-72.64748728928774 26.992876817254295 C-73.26819694005718 26.85120388997518, -73.88890659082662 26.709530962696068, -74.36612605751145 26.60060873357331 M-72.64748728928774 26.992876817254295 C-73.00864336276885 26.910445300245865, -73.36979943624995 26.82801378323743, -74.36612605751145 26.60060873357331 M-74.36612605751145 26.60060873357331 C-74.81395807618959 26.46769454114787, -75.26179009486773 26.334780348722436, -76.05610099564956 26.099033042793394 M-74.36612605751145 26.60060873357331 C-74.77969229234233 26.477864445928972, -75.19325852717321 26.35512015828463, -76.05610099564956 26.099033042793394 M-76.05610099564956 26.099033042793394 C-76.60763717561801 25.896062630220445, -77.15917335558646 25.693092217647497, -77.71046763418279 25.4902108270156 M-76.05610099564956 26.099033042793394 C-76.53449674879528 25.922978983393904, -77.012892501941 25.746924923994413, -77.71046763418279 25.4902108270156 M-77.71046763418279 25.4902108270156 C-78.1482765251035 25.296405818144315, -78.58608541602422 25.10260080927303, -79.32242782573285 24.77664386731653 M-77.71046763418279 25.4902108270156 C-78.19152337266937 25.27726172159906, -78.67257911115594 25.064312616182523, -79.32242782573285 24.77664386731653 M-79.32242782573285 24.77664386731653 C-79.83307046990465 24.51024192693432, -80.34371311407646 24.24383998655211, -80.88535768010829 23.961264363393216 M-79.32242782573285 24.77664386731653 C-79.64350733854549 24.609136891143415, -79.96458685135815 24.4416299149703, -80.88535768010829 23.961264363393216 M-80.88535768010829 23.961264363393216 C-81.24431845974844 23.743660229287656, -81.60327923938861 23.5260560951821, -82.39283478329007 23.047422884525627 M-80.88535768010829 23.961264363393216 C-81.47583277632191 23.60331489005168, -82.06630787253553 23.24536541671015, -82.39283478329007 23.047422884525627 M-82.39283478329007 23.047422884525627 C-82.93483599883602 22.669346299415242, -83.47683721438196 22.291269714304857, -83.83866458850844 22.03887460136881 M-82.39283478329007 23.047422884525627 C-82.6831555256264 22.844907702454183, -82.97347626796272 22.642392520382742, -83.83866458850844 22.03887460136881 M-83.83866458850844 22.03887460136881 C-84.34406191047113 21.63583368629114, -84.8494592324338 21.23279277121347, -85.21690587096418 20.939763855151202 M-83.83866458850844 22.03887460136881 C-84.38352472057596 21.604363145382006, -84.92838485264349 21.169851689395202, -85.21690587096418 20.939763855151202 M-85.21690587096418 20.939763855151202 C-85.51860412288433 20.665769485255648, -85.82030237480447 20.391775115360094, -86.52189514159586 19.75460712768752 M-85.21690587096418 20.939763855151202 C-85.71429007359097 20.488052682390396, -86.21167427621776 20.036341509629594, -86.52189514159586 19.75460712768752 M-86.52189514159586 19.75460712768752 C-86.99982469594896 19.261105624071803, -87.47775425030206 18.767604120456088, -87.74826991957119 18.488274482186213 M-86.52189514159586 19.75460712768752 C-86.89626884553219 19.368035541720545, -87.27064254946853 18.981463955753565, -87.74826991957119 18.488274482186213 M-87.74826991957119 18.488274482186213 C-88.16679173850584 17.996654939099436, -88.58531355744049 17.50503539601266, -88.89099076787082 17.145969551115176 M-87.74826991957119 18.488274482186213 C-88.06117730237047 18.120715665415702, -88.37408468516975 17.753156848645187, -88.89099076787082 17.145969551115176 M-88.89099076787082 17.145969551115176 C-89.17705930236177 16.762663776276934, -89.4631278368527 16.379358001438693, -89.94536200141629 15.733208153359675 M-88.89099076787082 17.145969551115176 C-89.15009027545699 16.79879981540044, -89.40918978304316 16.451630079685703, -89.94536200141629 15.733208153359675 M-89.94536200141629 15.733208153359675 C-90.20535297078575 15.333792207057542, -90.46534394015522 14.934376260755409, -90.90705098264701 14.255795628539454 M-89.94536200141629 15.733208153359675 C-90.16745077326021 15.392020160621877, -90.38953954510416 15.05083216788408, -90.90705098264701 14.255795628539454 M-90.90705098264701 14.255795628539454 C-91.120133799158 13.877445510849297, -91.33321661566899 13.499095393159138, -91.7721059252575 12.719802981622973 M-90.90705098264701 14.255795628539454 C-91.2232316378676 13.694384858432176, -91.53941229308819 13.1329740883249, -91.7721059252575 12.719802981622973 M-91.7721059252575 12.719802981622973 C-92.04316751577923 12.156937789115661, -92.31422910630097 11.594072596608349, -92.53697213293484 11.13154193586584 M-91.7721059252575 12.719802981622973 C-92.05267095984007 12.137203684182213, -92.33323599442264 11.55460438674145, -92.53697213293484 11.13154193586584 M-92.53697213293484 11.13154193586584 C-92.70766593635786 10.709924941270792, -92.87835973978088 10.288307946675744, -93.1985066063684 9.497538996585975 M-92.53697213293484 11.13154193586584 C-92.77890222733959 10.533969925285934, -93.02083232174434 9.936397914706028, -93.1985066063684 9.497538996585975 M-93.1985066063684 9.497538996585975 C-93.342024576238 9.065285737821915, -93.4855425461076 8.633032479057855, -93.75399095850817 7.824508632353393 M-93.1985066063684 9.497538996585975 C-93.40136303118149 8.886567765831016, -93.60421945599457 8.275596535076057, -93.75399095850817 7.824508632353393 M-93.75399095850817 7.824508632353393 C-93.88773756529513 7.314474854528676, -94.02148417208207 6.804441076703959, -94.20114258500014 6.119325683798652 M-93.75399095850817 7.824508632353393 C-93.88715222935203 7.316706994165894, -94.02031350019588 6.808905355978396, -94.20114258500014 6.119325683798652 M-94.20114258500014 6.119325683798652 C-94.29652017086492 5.629581938442908, -94.3918977567297 5.139838193087164, -94.53812404389737 4.3889971134179415 M-94.20114258500014 6.119325683798652 C-94.32210058042423 5.498231941777297, -94.44305857584834 4.877138199755941, -94.53812404389737 4.3889971134179415 M-94.53812404389737 4.3889971134179415 C-94.61816757541641 3.7681952893394373, -94.69821110693545 3.147393465260933, -94.76355060610295 2.6406332124612693 M-94.53812404389737 4.3889971134179415 C-94.61069963387902 3.8261151691915343, -94.68327522386068 3.2632332249651275, -94.76355060610295 2.6406332124612693 M-94.76355060610295 2.6406332124612693 C-94.80544659339711 1.9880693925226054, -94.84734258069125 1.3355055725839418, -94.87649594551891 0.8814183832205205 M-94.76355060610295 2.6406332124612693 C-94.80693683753306 1.9648576372016402, -94.85032306896316 1.2890820619420114, -94.87649594551891 0.8814183832205205 M-94.87649594551891 0.8814183832205205 C-94.87649594551891 0.3712893730224841, -94.87649594551891 -0.13883963717555226, -94.87649594551891 -0.8814183832205071 M-94.87649594551891 0.8814183832205205 C-94.87649594551891 0.3060024333092335, -94.87649594551891 -0.2694135166020535, -94.87649594551891 -0.8814183832205071 M-94.87649594551891 -0.8814183832205071 C-94.84788381949075 -1.3270753414016432, -94.81927169346258 -1.772732299582779, -94.76355060610295 -2.640633212461231 M-94.87649594551891 -0.8814183832205071 C-94.83425485956518 -1.539357393340893, -94.79201377361143 -2.197296403461279, -94.76355060610295 -2.640633212461231 M-94.76355060610295 -2.640633212461231 C-94.6863011286235 -3.239764905157182, -94.60905165114404 -3.8388965978531338, -94.53812404389738 -4.388997113417929 M-94.76355060610295 -2.640633212461231 C-94.68156559697137 -3.2764927535146158, -94.59958058783977 -3.9123522945680005, -94.53812404389738 -4.388997113417929 M-94.53812404389738 -4.388997113417929 C-94.46047333808175 -4.787717076298687, -94.38282263226613 -5.186437039179446, -94.20114258500016 -6.11932568379864 M-94.53812404389738 -4.388997113417929 C-94.41554407357799 -5.018419353722106, -94.2929641032586 -5.647841594026282, -94.20114258500016 -6.11932568379864 M-94.20114258500016 -6.11932568379864 C-94.05333012356594 -6.6829986615733326, -93.90551766213171 -7.246671639348025, -93.75399095850817 -7.824508632353378 M-94.20114258500016 -6.11932568379864 C-94.06075530224399 -6.65468323718114, -93.92036801948781 -7.190040790563641, -93.75399095850817 -7.824508632353378 M-93.75399095850817 -7.824508632353378 C-93.5843347667252 -8.335486050960379, -93.41467857494226 -8.846463469567379, -93.19850660636843 -9.497538996585941 M-93.75399095850817 -7.824508632353378 C-93.54146998892423 -8.464587932122082, -93.32894901934029 -9.104667231890785, -93.19850660636843 -9.497538996585941 M-93.19850660636843 -9.497538996585941 C-93.00951001889985 -9.964364221633746, -92.82051343143128 -10.43118944668155, -92.53697213293484 -11.131541935865826 M-93.19850660636843 -9.497538996585941 C-92.94572541854264 -10.12191341770743, -92.69294423071683 -10.74628783882892, -92.53697213293484 -11.131541935865826 M-92.53697213293484 -11.131541935865826 C-92.30903320260673 -11.604862001803944, -92.08109427227863 -12.078182067742064, -91.7721059252575 -12.71980298162296 M-92.53697213293484 -11.131541935865826 C-92.23843366608055 -11.751463449988652, -91.93989519922627 -12.37138496411148, -91.7721059252575 -12.71980298162296 M-91.7721059252575 -12.71980298162296 C-91.4360762621738 -13.3164576751212, -91.10004659909009 -13.913112368619439, -90.90705098264702 -14.255795628539445 M-91.7721059252575 -12.71980298162296 C-91.4426937079931 -13.30470772997997, -91.11328149072871 -13.889612478336982, -90.90705098264702 -14.255795628539445 M-90.90705098264702 -14.255795628539445 C-90.65818886803586 -14.638114665416866, -90.40932675342471 -15.020433702294289, -89.94536200141629 -15.733208153359666 M-90.90705098264702 -14.255795628539445 C-90.62329443343188 -14.691721887436277, -90.33953788421672 -15.12764814633311, -89.94536200141629 -15.733208153359666 M-89.94536200141629 -15.733208153359666 C-89.69484518937155 -16.06887785894852, -89.44432837732683 -16.40454756453738, -88.89099076787082 -17.14596955111517 M-89.94536200141629 -15.733208153359666 C-89.58541283477604 -16.215507244613924, -89.22546366813579 -16.697806335868183, -88.89099076787082 -17.14596955111517 M-88.89099076787082 -17.14596955111517 C-88.6035582280747 -17.483604167734523, -88.3161256882786 -17.821238784353877, -87.74826991957119 -18.488274482186203 M-88.89099076787082 -17.14596955111517 C-88.46600525267826 -17.645181719621217, -88.04101973748571 -18.14439388812727, -87.74826991957119 -18.488274482186203 M-87.74826991957119 -18.488274482186203 C-87.33445083926459 -18.915576657781106, -86.920631758958 -19.342878833376005, -86.52189514159589 -19.754607127687493 M-87.74826991957119 -18.488274482186203 C-87.43862756271096 -18.808005637754675, -87.12898520585073 -19.127736793323145, -86.52189514159589 -19.754607127687493 M-86.52189514159589 -19.754607127687493 C-86.16674851651395 -20.077141895922143, -85.81160189143199 -20.399676664156793, -85.21690587096421 -20.939763855151178 M-86.52189514159589 -19.754607127687493 C-86.21465571423558 -20.03363384650635, -85.90741628687526 -20.312660565325206, -85.21690587096421 -20.939763855151178 M-85.21690587096421 -20.939763855151178 C-84.84389872640597 -21.237227126799382, -84.47089158184774 -21.534690398447587, -83.83866458850845 -22.0388746013688 M-85.21690587096421 -20.939763855151178 C-84.79063219368444 -21.279705769162838, -84.36435851640466 -21.6196476831745, -83.83866458850845 -22.0388746013688 M-83.83866458850845 -22.0388746013688 C-83.51962878642715 -22.261420166063434, -83.20059298434585 -22.483965730758072, -82.39283478329011 -23.047422884525606 M-83.83866458850845 -22.0388746013688 C-83.43801093741335 -22.318353244355716, -83.03735728631827 -22.597831887342636, -82.39283478329011 -23.047422884525606 M-82.39283478329011 -23.047422884525606 C-82.01905590204703 -23.27400983890368, -81.64527702080396 -23.500596793281755, -80.88535768010829 -23.961264363393205 M-82.39283478329011 -23.047422884525606 C-81.9759055539151 -23.300167833520852, -81.55897632454008 -23.5529127825161, -80.88535768010829 -23.961264363393205 M-80.88535768010829 -23.961264363393205 C-80.55983055342344 -24.131091656874617, -80.23430342673859 -24.300918950356028, -79.32242782573286 -24.776643867316523 M-80.88535768010829 -23.961264363393205 C-80.49660452970787 -24.164076632948827, -80.10785137930746 -24.366888902504446, -79.32242782573286 -24.776643867316523 M-79.32242782573286 -24.776643867316523 C-78.99199126844242 -24.9229183291768, -78.66155471115196 -25.069192791037075, -77.7104676341828 -25.49021082701559 M-79.32242782573286 -24.776643867316523 C-78.99921597970635 -24.9197201638137, -78.67600413367983 -25.062796460310878, -77.7104676341828 -25.49021082701559 M-77.7104676341828 -25.49021082701559 C-77.0994209166554 -25.715081667519613, -76.488374199128 -25.939952508023634, -76.05610099564959 -26.09903304279338 M-77.7104676341828 -25.49021082701559 C-77.35685353354121 -25.620344084824612, -77.00323943289962 -25.75047734263363, -76.05610099564959 -26.09903304279338 M-76.05610099564959 -26.09903304279338 C-75.6773918248206 -26.211431936810417, -75.29868265399163 -26.323830830827458, -74.36612605751148 -26.6006087335733 M-76.05610099564959 -26.09903304279338 C-75.45136666953313 -26.27851501646949, -74.84663234341666 -26.457996990145606, -74.36612605751148 -26.6006087335733 M-74.36612605751148 -26.6006087335733 C-73.68410810856483 -26.756274879837328, -73.00209015961818 -26.91194102610136, -72.64748728928775 -26.992876817254295 M-74.36612605751148 -26.6006087335733 C-74.01401471569852 -26.680975849600866, -73.66190337388556 -26.761342965628433, -72.64748728928775 -26.992876817254295 M-72.64748728928775 -26.992876817254295 C-71.95948505673174 -27.104107682676954, -71.27148282417572 -27.21533854809961, -70.90724694632394 -27.274225380139267 M-72.64748728928775 -26.992876817254295 C-72.05926433696747 -27.087976142448316, -71.47104138464718 -27.183075467642333, -70.90724694632394 -27.274225380139267 M-70.90724694632394 -27.274225380139267 C-70.30351260508444 -27.332466905941864, -69.69977826384495 -27.39070843174446, -69.15255604946961 -27.44349830063425 M-70.90724694632394 -27.274225380139267 C-70.54307549859524 -27.30935656172141, -70.17890405086655 -27.344487743303553, -69.15255604946961 -27.44349830063425 M-69.15255604946961 -27.44349830063425 C-68.51851402111377 -27.46383079439568, -67.88447199275794 -27.484163288157113, -67.39062500000001 -27.5 M-69.15255604946961 -27.44349830063425 C-68.68394790313477 -27.458525651796784, -68.21533975679993 -27.473553002959317, -67.39062500000001 -27.5 M-67.39062500000001 -27.5 C-67.39062500000001 -27.5, -67.390625 -27.5, -67.390625 -27.5 M-67.39062500000001 -27.5 C-67.39062500000001 -27.5, -67.390625 -27.5, -67.390625 -27.5" stroke="#7b8494" stroke-width="1.3" fill="none" stroke-dasharray="0 0" style="fill:#eef0f3 !important;stroke:#7b8494 !important"/></g><g class="label" style="color:#1d1d1f !important" transform="translate(0, -25.5)"><rect/><g><rect class="background" style="stroke: none"/><text y="-10.1" style="fill:#1d1d1f !important"><tspan class="text-outer-tspan row" x="0" y="-0.1em" dy="1.1em"><tspan font-style="normal" class="text-inner-tspan" font-weight="normal">Whichever</tspan><tspan font-style="normal" class="text-inner-tspan" font-weight="normal"> runs</tspan><tspan font-style="normal" class="text-inner-tspan" font-weight="normal"> out</tspan><tspan font-style="normal" class="text-inner-tspan" font-weight="normal"> first</tspan></tspan><tspan class="text-outer-tspan row" x="0" y="1em" dy="1.1em"><tspan font-style="normal" class="text-inner-tspan" font-weight="normal">stops</tspan><tspan font-style="normal" class="text-inner-tspan" font-weight="normal"> the</tspan><tspan font-style="normal" class="text-inner-tspan" font-weight="normal"> item</tspan><tspan font-style="normal" class="text-inner-tspan" font-weight="normal"> and</tspan><tspan font-style="normal" class="text-inner-tspan" font-weight="normal"> waits</tspan></tspan><tspan class="text-outer-tspan row" x="0" y="2.1em" dy="1.1em"><tspan font-style="normal" class="text-inner-tspan" font-weight="normal">for</tspan><tspan font-style="normal" class="text-inner-tspan" font-weight="normal"> you,</tspan><tspan font-style="normal" class="text-inner-tspan" font-weight="normal"> naming</tspan><tspan font-style="normal" class="text-inner-tspan" font-weight="normal"> its</tspan><tspan font-style="normal" class="text-inner-tspan" font-weight="normal"> scope</tspan></tspan></text></g></g></g></g></g><marker id="my-svg_flowchart-v2-pointEnd__7b8494" class="marker flowchart-v2" viewBox="0 0 10 10" refX="5" refY="5" markerUnits="userSpaceOnUse" markerWidth="8" markerHeight="8" orient="auto"><path d="M 0 0 L 10 5 L 0 10 z" class="arrowMarkerPath" style="stroke-width: 1; stroke-dasharray: 1, 0;" stroke="#7b8494" fill="#7b8494"/></marker></g><defs><filter id="my-svg-drop-shadow" height="130%" width="130%"><feDropShadow dx="4" dy="4" stdDeviation="0" flood-opacity="0.06" flood-color="#000000"/></filter></defs><defs><filter id="my-svg-drop-shadow-small" height="150%" width="150%"><feDropShadow dx="2" dy="2" stdDeviation="0" flood-opacity="0.06" flood-color="#000000"/></filter></defs><linearGradient id="my-svg-gradient" gradientUnits="objectBoundingBox" x1="0%" y1="0%" x2="100%" y2="0%"><stop offset="0%" stop-color="hsl(0, 0%, 83.3333333333%)" stop-opacity="1"/><stop offset="100%" stop-color="hsl(0, 0%, 88.9215686275%)" stop-opacity="1"/></linearGradient></svg>